<svg width="180" height="180" viewBox="0 0 180 180" fill="none" xmlns="http://www.w3.org/2000/svg">
  <style>
    @media (prefers-color-scheme: light) {
      .bg { fill: #0f172a; }
      .mark { fill: #f8fafc; }
      .accent { fill: #f97316; }
      .wave { stroke: #f8fafc; }
    }
    @media (prefers-color-scheme: dark) {
      .bg { fill: #f8fafc; }
      .mark { fill: #0f172a; }
      .accent { fill: #ea580c; }
      .wave { stroke: #0f172a; }
    }
  </style>
  <rect class="bg" width="180" height="180" rx="40" />
  <path
    class="mark"
    d="M49 87.5C49 83.9 51.9 81 55.5 81H66L116.2 56.6C120.3 54.6 125 57.5 125 62V118C125 122.5 120.3 125.4 116.2 123.4L66 99H55.5C51.9 99 49 96.1 49 92.5V87.5Z"
  />
  <rect class="accent" x="62" y="100" width="20" height="28" rx="8" />
  <path class="wave" d="M133 73C141.3 80.3 141.3 99.7 133 107" stroke-width="8" stroke-linecap="round" />
  <path class="wave" d="M146 63C160 76 160 104 146 117" stroke-width="8" stroke-linecap="round" />
</svg>